<svg width="48" height="48" viewBox="0 0 48 48" fill="none" xmlns="http://www.w3.org/2000/svg">
<rect width="48" height="48" rx="24" fill="#FCFCF9"/>
<g clip-path="url(#clip0_226_4158)">
<path d="M22.4467 22.6211C22.2079 22.6408 21.9851 22.7495 21.8228 22.9258C21.6604 23.102 21.5703 23.3329 21.5703 23.5726C21.5703 23.8122 21.6604 24.0431 21.8228 24.2193C21.9851 24.3956 22.2079 24.5043 22.4467 24.524C22.5669 24.5196 22.685 24.4914 22.7942 24.4411C22.9035 24.3908 23.0017 24.3194 23.0832 24.2309C23.1647 24.1425 23.2278 24.0387 23.269 23.9257C23.3102 23.8127 23.3286 23.6927 23.3231 23.5726C23.329 23.4523 23.3109 23.3321 23.2699 23.2189C23.2289 23.1057 23.1657 23.0018 23.0842 22.9133C23.0026 22.8247 22.9042 22.7533 22.7948 22.7031C22.6853 22.653 22.567 22.6251 22.4467 22.6211ZM25.5753 22.6211C25.3838 22.6054 25.192 22.6478 25.025 22.7428C24.8579 22.8378 24.7235 22.981 24.6392 23.1537C24.5549 23.3264 24.5246 23.5205 24.5524 23.7106C24.5802 23.9007 24.6647 24.078 24.7949 24.2194C24.9251 24.3607 25.0949 24.4594 25.2821 24.5027C25.4693 24.546 25.6652 24.5317 25.8442 24.4618C26.0232 24.392 26.1769 24.2697 26.2853 24.111C26.3937 23.9524 26.4517 23.7647 26.4517 23.5726C26.4571 23.4526 26.4388 23.3327 26.3978 23.2199C26.3567 23.107 26.2938 23.0034 26.2125 22.9149C26.1312 22.8265 26.0333 22.755 25.9243 22.7046C25.8153 22.6542 25.6974 22.6258 25.5774 22.6211H25.5753Z" fill="#22252D"/>
<path d="M29.7429 15.4297H18.2572C18.0257 15.4302 17.7965 15.4764 17.5829 15.5656C17.3693 15.6548 17.1753 15.7852 17.0121 15.9494C16.8489 16.1136 16.7197 16.3083 16.6318 16.5225C16.544 16.7367 16.4992 16.9661 16.5 17.1975V28.784C16.4992 29.0155 16.544 29.2449 16.6318 29.459C16.7197 29.6732 16.8489 29.8679 17.0121 30.0321C17.1753 30.1963 17.3693 30.3267 17.5829 30.4159C17.7965 30.5051 18.0257 30.5513 18.2572 30.5518H27.9772L27.5229 28.9661L28.62 29.984L29.6572 30.944L31.5 32.5725V17.1975C31.5009 16.9661 31.4561 16.7367 31.3682 16.5225C31.2803 16.3083 31.1511 16.1136 30.9879 15.9494C30.8247 15.7852 30.6307 15.6548 30.4171 15.5656C30.2035 15.4764 29.9744 15.4302 29.7429 15.4297V15.4297ZM26.4343 26.6261C26.4343 26.6261 26.1257 26.2575 25.8686 25.9297C26.4903 25.7844 27.0407 25.4239 27.4222 24.9118C27.1137 25.1171 26.7831 25.2867 26.4364 25.4175C26.0377 25.5877 25.6207 25.7114 25.1936 25.7861C24.4595 25.9213 23.7066 25.9184 22.9736 25.7775C22.5432 25.6933 22.1215 25.57 21.7136 25.409C21.3691 25.2754 21.0401 25.1052 20.7322 24.9011C21.099 25.4028 21.6295 25.7606 22.2322 25.9125C21.975 26.2383 21.6579 26.624 21.6579 26.624C21.1487 26.6377 20.644 26.5261 20.1881 26.2989C19.7322 26.0717 19.3392 25.7359 19.0436 25.3211C19.0707 23.5836 19.492 21.8749 20.2757 20.324C20.9666 19.7814 21.809 19.4669 22.6864 19.424L22.7722 19.5268C21.9474 19.7309 21.1777 20.1143 20.5179 20.6497C20.5179 20.6497 20.7064 20.5468 21.0236 20.4011C21.6404 20.1197 22.2978 19.9374 22.9714 19.8611C23.0194 19.8512 23.0682 19.8454 23.1172 19.844C23.6915 19.7691 24.2728 19.7634 24.8486 19.8268C25.754 19.9302 26.6305 20.2098 27.4286 20.6497C26.8022 20.1398 26.0748 19.7688 25.2943 19.5611L25.4143 19.424C26.2917 19.4669 27.1341 19.7814 27.825 20.324C28.6087 21.8749 29.03 23.5836 29.0572 25.3211C28.7594 25.7359 28.3648 26.0716 27.9076 26.299C27.4505 26.5265 26.9447 26.6387 26.4343 26.6261Z" fill="#22252D"/>
</g>
<defs>
<clipPath id="clip0_226_4158">
<rect width="17.1429" height="17.1429" fill="white" transform="translate(15.4287 15.4297)"/>
</clipPath>
</defs>
</svg>
