<svg width="48" height="48" viewBox="0 0 48 48" fill="none" xmlns="http://www.w3.org/2000/svg">
<rect width="48" height="48" rx="24" fill="#FCFCF9"/>
<g clip-path="url(#clip0_226_4163)">
<path d="M24.0004 26.7152C25.4995 26.7152 26.7147 25.5 26.7147 24.0009C26.7147 22.5018 25.4995 21.2866 24.0004 21.2866C22.5014 21.2866 21.2861 22.5018 21.2861 24.0009C21.2861 25.5 22.5014 26.7152 24.0004 26.7152Z" fill="#22252D"/>
<path d="M27.3925 15.8582H20.6067C17.9881 15.8582 15.8574 17.9895 15.8574 20.6088V27.3945C15.8574 30.0132 17.9888 32.1439 20.6081 32.1439H27.3938C30.0124 32.1439 32.1431 30.0125 32.1431 27.3932V20.6075C32.1431 17.9889 30.0117 15.8582 27.3925 15.8582ZM24.0003 28.0724C21.7549 28.0724 19.9289 26.2464 19.9289 24.001C19.9289 21.7556 21.7549 19.9296 24.0003 19.9296C26.2457 19.9296 28.0717 21.7556 28.0717 24.001C28.0717 26.2464 26.2457 28.0724 24.0003 28.0724ZM28.7503 19.9296C28.3757 19.9296 28.0717 19.6256 28.0717 19.251C28.0717 18.8764 28.3757 18.5724 28.7503 18.5724C29.1249 18.5724 29.4289 18.8764 29.4289 19.251C29.4289 19.6256 29.1249 19.9296 28.7503 19.9296Z" fill="#22252D"/>
</g>
<defs>
<clipPath id="clip0_226_4163">
<rect width="17.1429" height="17.1429" fill="white" transform="translate(15.4287 15.4297)"/>
</clipPath>
</defs>
</svg>
