<svg width="48" height="48" viewBox="0 0 48 48" fill="none" xmlns="http://www.w3.org/2000/svg">
<rect width="48" height="48" rx="24" fill="#FCFCF9"/>
<g clip-path="url(#clip0_226_4165)">
<path d="M32.5367 17.2346C32.5229 17.1714 32.4926 17.1129 32.4488 17.0652C32.405 17.0175 32.3494 16.9822 32.2876 16.963C32.0625 16.9186 31.8296 16.9353 31.6131 17.0112C31.6131 17.0112 16.5933 22.4096 15.7356 23.0075C15.5502 23.1361 15.4886 23.2105 15.4581 23.2989C15.3097 23.7243 15.7715 23.9118 15.7715 23.9118L19.6426 25.1734C19.708 25.1847 19.7751 25.1806 19.8386 25.1616C20.7194 24.6055 28.6988 19.5666 29.1601 19.3973C29.2324 19.3753 29.286 19.3973 29.2742 19.4509C29.0856 20.0969 22.1947 26.2207 22.1567 26.2582C22.1382 26.2734 22.1237 26.2928 22.1143 26.3148C22.105 26.3368 22.1011 26.3608 22.1031 26.3846L21.7431 30.1619C21.7431 30.1619 21.592 31.3405 22.7685 30.1619C23.6026 29.3268 24.4029 28.6357 24.8042 28.2998C26.1354 29.2186 27.5679 30.2348 28.1856 30.7641C28.2892 30.8648 28.4121 30.9435 28.5469 30.9956C28.6816 31.0477 28.8255 31.0721 28.9699 31.0673C29.5592 31.0448 29.7199 30.4003 29.7199 30.4003C29.7199 30.4003 32.4563 19.3887 32.5485 17.9128C32.557 17.7682 32.5693 17.6755 32.5704 17.5764C32.5753 17.4615 32.5639 17.3464 32.5367 17.2346Z" fill="#22252D"/>
</g>
<defs>
<clipPath id="clip0_226_4165">
<rect width="17.1429" height="17.1429" fill="white" transform="translate(15.4287 15.4297)"/>
</clipPath>
</defs>
</svg>
