<svg width="48" height="48" viewBox="0 0 48 48" fill="none" xmlns="http://www.w3.org/2000/svg">
<rect width="48" height="48" rx="24" fill="#FCFCF9"/>
<g clip-path="url(#clip0_226_4161)">
<path d="M32.5714 18.6976C31.9286 18.9654 31.2857 19.1797 30.5357 19.2333C31.2857 18.8047 31.8214 18.1083 32.0893 17.3047C31.3929 17.7333 30.6429 18.0012 29.8393 18.1619C29.1964 17.4654 28.2857 17.0369 27.3214 17.0369C25.3929 17.0369 23.7857 18.5904 23.7857 20.5726C23.7857 20.8404 23.8393 21.1083 23.8929 21.3762C20.9464 21.2154 18.375 19.8226 16.6071 17.6797C16.2857 18.2154 16.125 18.8047 16.125 19.4476C16.125 20.6797 16.7679 21.7512 17.6786 22.394C17.0893 22.394 16.5536 22.2333 16.0714 21.9654V22.019C16.0714 23.7333 17.3036 25.1262 18.9107 25.4476C18.5893 25.5012 18.3214 25.5547 18 25.5547C17.7857 25.5547 17.5714 25.5547 17.3571 25.5011C17.7857 26.894 19.125 27.9119 20.625 27.9654C19.4464 28.9297 17.8929 29.4654 16.2321 29.4654C15.9643 29.4654 15.6429 29.4654 15.375 29.4119C16.9821 30.3761 18.8571 30.9654 20.8393 30.9654C27.3214 30.9654 30.8571 25.6083 30.8571 20.9476C30.8571 20.7869 30.8571 20.6262 30.8571 20.519C31.5 19.9833 32.0893 19.394 32.5714 18.6976Z" fill="#22252D"/>
</g>
<defs>
<clipPath id="clip0_226_4161">
<rect width="17.1429" height="17.1429" fill="white" transform="translate(15.4287 15.4297)"/>
</clipPath>
</defs>
</svg>
