<svg width="48" height="49" viewBox="0 0 48 49" fill="none" xmlns="http://www.w3.org/2000/svg">
<path d="M42 40.7547H41.5V38.2459C41.5 36.0783 40.158 34.7336 38 34.7336H37.5V23.6949H38C40.158 23.6949 41.5 22.3501 41.5 20.1825V15.0463C41.5 13.7077 40.758 12.5035 39.564 11.9054L26.012 5.10571C24.75 4.4755 23.246 4.4755 21.988 5.10571L8.43604 11.9054C7.24204 12.5035 6.5 13.7077 6.5 15.0463V20.1825C6.5 22.3501 7.842 23.6949 10 23.6949H10.5V34.7336H10C7.842 34.7336 6.5 36.0783 6.5 38.2459V40.7547H6C5.172 40.7547 4.5 41.4291 4.5 42.26C4.5 43.0909 5.172 43.7653 6 43.7653H42C42.828 43.7653 43.5 43.0909 43.5 42.26C43.5 41.4291 42.828 40.7547 42 40.7547ZM34.5 34.7336H29.5V23.6949H34.5V34.7336ZM21.5 34.7336V23.6949H26.5V34.7336H21.5ZM9.56812 20.6299C9.56612 20.6299 9.56612 20.6299 9.56812 20.6299C9.55812 20.6138 9.5 20.4956 9.5 20.1825V15.0463C9.5 14.8557 9.60588 14.6833 9.77588 14.597L23.3279 7.79728C23.7539 7.58453 24.2461 7.58453 24.6721 7.79728L38.2241 14.597C38.3941 14.6813 38.5 14.8537 38.5 15.0463V20.1825C38.5 20.4956 38.442 20.6121 38.446 20.6181C38.43 20.6262 38.312 20.6843 38 20.6843H10C9.698 20.6843 9.57812 20.6299 9.56812 20.6299ZM13.5 23.6949H18.5V34.7336H13.5V23.6949ZM9.5 38.2459C9.5 37.9328 9.55796 37.8163 9.55396 37.8103C9.56995 37.8023 9.688 37.7442 10 37.7442H38C38.364 37.7442 38.4361 37.7985 38.4341 37.7985C38.4421 37.8166 38.5 37.9328 38.5 38.2459V40.7547H9.5V38.2459ZM21.5 14.1614C21.5 12.7765 22.62 11.6526 24 11.6526C25.38 11.6526 26.5 12.7765 26.5 14.1614C26.5 15.5463 25.38 16.6702 24 16.6702C22.62 16.6702 21.5 15.5463 21.5 14.1614Z" fill="#CAFC5F"/>
</svg>
