<svg width="15" height="14" viewBox="0 0 15 14" fill="none" xmlns="http://www.w3.org/2000/svg">
<path d="M14.365 10.8564L8.86823 0.938677C8.54282 0.350641 7.94713 0 7.27487 0C6.60261 0 6.00769 0.350641 5.68151 0.938677L0.184743 10.8557C-0.0679284 11.3112 -0.0610474 11.851 0.203109 12.2997C0.467266 12.7484 0.935893 13.0164 1.45578 13.0164H13.0925C13.6131 13.0164 14.0817 12.7484 14.3458 12.2997C14.61 11.851 14.6177 11.3112 14.365 10.8564ZM3.89519 5.74254H10.6553L12.3528 8.80522H2.19772L3.89519 5.74254ZM6.35147 1.30927C6.54059 0.968545 6.88514 0.765671 7.27487 0.765671C7.6646 0.765671 8.00914 0.96931 8.19826 1.30927L10.2311 4.97686H4.32014L6.35147 1.30927ZM13.6858 11.9116C13.561 12.1244 13.3398 12.2507 13.0932 12.2507H1.45653C1.21075 12.2507 0.988717 12.1236 0.863912 11.9116C0.738342 11.6987 0.73529 11.4429 0.8555 11.227L1.77352 9.57089H12.777L13.695 11.2278C13.8145 11.4429 13.8114 11.6987 13.6858 11.9116Z" fill="#76768A"/>
</svg>
