<svg width="10" height="10" viewBox="0 0 10 10" fill="none" xmlns="http://www.w3.org/2000/svg">
<path d="M9.0625 8.33332C9.0625 8.50582 8.9225 8.64582 8.75 8.64582H1.875C1.28792 8.64582 0.9375 8.29541 0.9375 7.70832V1.66666C0.9375 1.49416 1.0775 1.35416 1.25 1.35416C1.4225 1.35416 1.5625 1.49416 1.5625 1.66666V7.70832C1.5625 7.95374 1.62958 8.02082 1.875 8.02082H8.75C8.9225 8.02082 9.0625 8.16082 9.0625 8.33332ZM2.91667 6.97916C3.08917 6.97916 3.22917 6.83916 3.22917 6.66666V5.41666C3.22917 5.24416 3.08917 5.10416 2.91667 5.10416C2.74417 5.10416 2.60417 5.24416 2.60417 5.41666V6.66666C2.60417 6.83916 2.74417 6.97916 2.91667 6.97916ZM4.58333 6.97916C4.75583 6.97916 4.89583 6.83916 4.89583 6.66666V3.74999C4.89583 3.57749 4.75583 3.43749 4.58333 3.43749C4.41083 3.43749 4.27083 3.57749 4.27083 3.74999V6.66666C4.27083 6.83916 4.41083 6.97916 4.58333 6.97916ZM6.25 6.97916C6.4225 6.97916 6.5625 6.83916 6.5625 6.66666V4.58332C6.5625 4.41082 6.4225 4.27082 6.25 4.27082C6.0775 4.27082 5.9375 4.41082 5.9375 4.58332V6.66666C5.9375 6.83916 6.0775 6.97916 6.25 6.97916ZM7.91667 6.97916C8.08917 6.97916 8.22917 6.83916 8.22917 6.66666V2.08332C8.22917 1.91082 8.08917 1.77082 7.91667 1.77082C7.74417 1.77082 7.60417 1.91082 7.60417 2.08332V6.66666C7.60417 6.83916 7.74417 6.97916 7.91667 6.97916Z" fill="#76768A"/>
</svg>
