<svg width="10" height="10" viewBox="0 0 10 10" fill="none" xmlns="http://www.w3.org/2000/svg">
<path d="M5.20833 0.9375H4.79167C4.20458 0.9375 3.85417 1.28792 3.85417 1.875V8.125C3.85417 8.71208 4.20458 9.0625 4.79167 9.0625H5.20833C5.79542 9.0625 6.14583 8.71208 6.14583 8.125V1.875C6.14583 1.28792 5.79542 0.9375 5.20833 0.9375ZM5.52083 8.125C5.52083 8.37042 5.45375 8.4375 5.20833 8.4375H4.79167C4.54625 8.4375 4.47917 8.37042 4.47917 8.125V1.875C4.47917 1.62958 4.54625 1.5625 4.79167 1.5625H5.20833C5.45375 1.5625 5.52083 1.62958 5.52083 1.875V8.125ZM8.125 3.02083H7.70833C7.12125 3.02083 6.77083 3.37125 6.77083 3.95833V8.125C6.77083 8.71208 7.12125 9.0625 7.70833 9.0625H8.125C8.71208 9.0625 9.0625 8.71208 9.0625 8.125V3.95833C9.0625 3.37125 8.71208 3.02083 8.125 3.02083ZM8.4375 8.125C8.4375 8.37042 8.37042 8.4375 8.125 8.4375H7.70833C7.46292 8.4375 7.39583 8.37042 7.39583 8.125V3.95833C7.39583 3.71292 7.46292 3.64583 7.70833 3.64583H8.125C8.37042 3.64583 8.4375 3.71292 8.4375 3.95833V8.125ZM2.29167 4.6875H1.875C1.28792 4.6875 0.9375 5.03792 0.9375 5.625V8.125C0.9375 8.71208 1.28792 9.0625 1.875 9.0625H2.29167C2.87875 9.0625 3.22917 8.71208 3.22917 8.125V5.625C3.22917 5.03792 2.87875 4.6875 2.29167 4.6875ZM2.60417 8.125C2.60417 8.37042 2.53708 8.4375 2.29167 8.4375H1.875C1.62958 8.4375 1.5625 8.37042 1.5625 8.125V5.625C1.5625 5.37958 1.62958 5.3125 1.875 5.3125H2.29167C2.53708 5.3125 2.60417 5.37958 2.60417 5.625V8.125Z" fill="#CAFC5F"/>
</svg>
