<svg width="10" height="10" viewBox="0 0 10 10" fill="none" xmlns="http://www.w3.org/2000/svg">
<path d="M1.25036 4.91669C1.23911 4.91669 1.22747 4.91626 1.2158 4.91501C1.04413 4.89626 0.920384 4.74166 0.939134 4.57041C1.09038 3.18833 1.92454 1.99793 3.17038 1.38626C3.26746 1.33876 3.38204 1.34459 3.47329 1.40167C3.56496 1.45876 3.62079 1.55916 3.62079 1.66707V2.93793C3.62079 3.11043 3.48079 3.25043 3.30829 3.25043C3.13579 3.25043 2.99579 3.11043 2.99579 2.93793V2.21252C2.19454 2.77002 1.66911 3.6454 1.56078 4.63832C1.54328 4.7979 1.40745 4.91669 1.25036 4.91669ZM8.7837 5.0854C8.6137 5.06706 8.45829 5.19042 8.43954 5.36209C8.33079 6.35501 7.80579 7.23043 7.00412 7.78793V7.06248C7.00412 6.88998 6.86412 6.74998 6.69162 6.74998C6.51912 6.74998 6.37912 6.88998 6.37912 7.06248V8.33333C6.37912 8.44125 6.43496 8.54165 6.52662 8.59873C6.57704 8.62998 6.63412 8.64583 6.69162 8.64583C6.73871 8.64583 6.78579 8.63541 6.82954 8.61374C8.07537 8.00249 8.90954 6.81209 9.06037 5.42959C9.07954 5.25834 8.95537 5.10415 8.7837 5.0854ZM4.68746 2.91667C4.68746 1.82542 5.57537 0.9375 6.66662 0.9375C7.75787 0.9375 8.64579 1.82542 8.64579 2.91667C8.64579 4.00792 7.75787 4.89583 6.66662 4.89583C5.57537 4.89583 4.68746 4.00792 4.68746 2.91667ZM5.31246 2.91667C5.31246 3.66333 5.91996 4.27083 6.66662 4.27083C7.41329 4.27083 8.02079 3.66333 8.02079 2.91667C8.02079 2.17 7.41329 1.5625 6.66662 1.5625C5.91996 1.5625 5.31246 2.17 5.31246 2.91667ZM5.31246 7.08333C5.31246 8.17458 4.42454 9.0625 3.33329 9.0625C2.24204 9.0625 1.35412 8.17458 1.35412 7.08333C1.35412 5.99208 2.24204 5.10417 3.33329 5.10417C4.42454 5.10417 5.31246 5.99208 5.31246 7.08333ZM4.68746 7.08333C4.68746 6.33667 4.07996 5.72917 3.33329 5.72917C2.58662 5.72917 1.97912 6.33667 1.97912 7.08333C1.97912 7.83 2.58662 8.4375 3.33329 8.4375C4.07996 8.4375 4.68746 7.83 4.68746 7.08333Z" fill="#76768A"/>
</svg>
