<svg width="13" height="12" viewBox="0 0 13 12" fill="none" xmlns="http://www.w3.org/2000/svg">
<g clip-path="url(#clip0_1057_1353)">
<path fill-rule="evenodd" clip-rule="evenodd" d="M2.53842 0H9.53922C10.9202 0 12.0391 1.20384 12.0391 2.68896V9.31104C12.0391 10.7962 10.9202 12 9.5397 12H2.53842C1.15794 12 0.0390625 10.7962 0.0390625 9.31104V2.68896C0.0390625 1.20384 1.15794 0 2.53842 0Z" fill="#0052FF"/>
<path fill-rule="evenodd" clip-rule="evenodd" d="M6.03926 1.73804C8.39318 1.73804 10.3012 3.64604 10.3012 5.99996C10.3012 8.35388 8.39318 10.2619 6.03926 10.2619C3.68534 10.2619 1.77734 8.35388 1.77734 5.99996C1.77734 3.64604 3.68534 1.73804 6.03926 1.73804Z" fill="white"/>
<path fill-rule="evenodd" clip-rule="evenodd" d="M4.98826 4.63782H7.0873C7.2601 4.63782 7.39978 4.78854 7.39978 4.97382V7.02582C7.39978 7.21158 7.25962 7.36182 7.0873 7.36182H4.98826C4.81546 7.36182 4.67578 7.2111 4.67578 7.02582V4.97382C4.67578 4.78854 4.81594 4.63782 4.98826 4.63782Z" fill="#0052FF"/>
</g>
<defs>
<clipPath id="clip0_1057_1353">
<rect width="12" height="12" fill="white" transform="translate(0.0390625)"/>
</clipPath>
</defs>
</svg>
