<svg width="12" height="10" viewBox="0 0 12 10" fill="none" xmlns="http://www.w3.org/2000/svg">
<g clip-path="url(#clip0_1130_1186)">
<path d="M10.0142 1.22308C9.27093 0.875304 8.47613 0.622555 7.6452 0.478638C7.54316 0.663135 7.42395 0.911287 7.34173 1.10869C6.45844 0.975855 5.58329 0.975855 4.71622 1.10869C4.63404 0.911287 4.51213 0.663135 4.40917 0.478638C3.57735 0.622555 2.78165 0.876233 2.03835 1.22492C0.539084 3.4905 0.132659 5.69979 0.335872 7.87775C1.33026 8.62033 2.29394 9.07144 3.24136 9.36659C3.47528 9.04468 3.68392 8.70241 3.86364 8.34175C3.52134 8.2117 3.19349 8.05117 2.88372 7.86482C2.9659 7.80397 3.04629 7.74028 3.12395 7.67482C5.01338 8.55855 7.06627 8.55855 8.93316 7.67482C9.01173 7.74028 9.09209 7.80397 9.17338 7.86482C8.86267 8.0521 8.53395 8.21259 8.19164 8.34268C8.37138 8.70241 8.57911 9.04562 8.81391 9.36753C9.76227 9.07233 10.7268 8.62126 11.7212 7.87775C11.9596 5.35295 11.3139 3.16394 10.0142 1.22308ZM4.12105 6.53833C3.55386 6.53833 3.08872 6.00881 3.08872 5.36402C3.08872 4.71922 3.54393 4.18881 4.12105 4.18881C4.69818 4.18881 5.16329 4.7183 5.15338 5.36402C5.15427 6.00881 4.69818 6.53833 4.12105 6.53833ZM7.93604 6.53833C7.36884 6.53833 6.90373 6.00881 6.90373 5.36402C6.90373 4.71922 7.35889 4.18881 7.93604 4.18881C8.51315 4.18881 8.97831 4.7183 8.96836 5.36402C8.96836 6.00881 8.51315 6.53833 7.93604 6.53833Z" fill="#76768A"/>
</g>
<defs>
<clipPath id="clip0_1130_1186">
<rect width="12" height="8.88889" fill="white" transform="translate(0 0.478638)"/>
</clipPath>
</defs>
</svg>
