<svg width="12" height="10" viewBox="0 0 12 10" fill="none" xmlns="http://www.w3.org/2000/svg">
<g clip-path="url(#clip0_1130_1198)">
<mask id="mask0_1130_1198" style="mask-type:luminance" maskUnits="userSpaceOnUse" x="0" y="-2" width="12" height="13">
<path d="M12 -1.07697H0V10.923H12V-1.07697Z" fill="white"/>
</mask>
<g mask="url(#mask0_1130_1198)">
<path d="M5.40052 7.81053C5.58802 7.81053 5.75675 7.96054 5.75675 8.16676C5.75675 8.35426 5.60675 8.52303 5.40052 8.52303C5.21302 8.52303 5.04425 8.37303 5.04425 8.16676C5.04425 7.96054 5.21302 7.81053 5.40052 7.81053ZM10.913 5.63553C10.7255 5.63553 10.5567 5.48553 10.5567 5.27926C10.5567 5.09176 10.7067 4.92303 10.913 4.92303C11.1005 4.92303 11.2692 5.07303 11.2692 5.27926C11.2692 5.46676 11.1005 5.63553 10.913 5.63553ZM10.913 4.19178C10.313 4.19178 9.82552 4.67928 9.82552 5.27926C9.82552 5.39176 9.84425 5.50426 9.88175 5.61676L6.30052 7.52926C6.09425 7.22926 5.75675 7.06053 5.40052 7.06053C4.98802 7.06053 4.61302 7.30426 4.42552 7.66053L1.20052 5.97303C0.863016 5.78553 0.600516 5.24176 0.638016 4.71676C0.656766 4.45428 0.750516 4.24803 0.881766 4.17303C0.975516 4.11678 1.06927 4.13553 1.20052 4.19178L1.21927 4.21053C2.08177 4.66053 4.87552 6.12303 4.98802 6.17926C5.17552 6.25426 5.26925 6.29176 5.58802 6.14176L11.363 3.14175C11.4567 3.10425 11.5505 3.02925 11.5505 2.898C11.5505 2.72925 11.3817 2.65425 11.3817 2.65425C11.0442 2.50425 10.538 2.2605 10.0505 2.0355C9.00052 1.548 7.80052 0.985505 7.27552 0.704256C6.82552 0.460506 6.45052 0.666756 6.39425 0.704256L6.26302 0.760506C3.88177 1.9605 0.731766 3.51675 0.544266 3.62925C0.225515 3.81675 0.0192645 4.21053 0.00051454 4.69803C-0.0369855 5.46676 0.356765 6.27303 0.919266 6.55426L4.33175 8.31676C4.40675 8.84176 4.87552 9.25426 5.40052 9.25426C6.00052 9.25426 6.46925 8.78553 6.48802 8.18553L10.238 6.16053C10.4255 6.31053 10.6692 6.38553 10.913 6.38553C11.513 6.38553 12.0005 5.89803 12.0005 5.29803C12.0005 4.67928 11.513 4.19178 10.913 4.19178Z" fill="#76768A"/>
</g>
</g>
<defs>
<clipPath id="clip0_1130_1198">
<rect width="12" height="9" fill="white" transform="translate(0 0.423065)"/>
</clipPath>
</defs>
</svg>
