<svg width="10" height="10" viewBox="0 0 10 10" fill="none" xmlns="http://www.w3.org/2000/svg">
<path d="M5 0.25H4.5C3.8645 0.25 3.5 0.6145 3.5 1.25V8.75C3.5 9.3855 3.8645 9.75 4.5 9.75H5C5.6355 9.75 6 9.3855 6 8.75V1.25C6 0.6145 5.6355 0.25 5 0.25ZM5.5 8.75C5.5 9.11 5.36 9.25 5 9.25H4.5C4.14 9.25 4 9.11 4 8.75V1.25C4 0.89 4.14 0.75 4.5 0.75H5C5.36 0.75 5.5 0.89 5.5 1.25V8.75ZM8.5 2.75H8C7.3645 2.75 7 3.1145 7 3.75V8.75C7 9.3855 7.3645 9.75 8 9.75H8.5C9.1355 9.75 9.5 9.3855 9.5 8.75V3.75C9.5 3.1145 9.1355 2.75 8.5 2.75ZM9 8.75C9 9.11 8.86 9.25 8.5 9.25H8C7.64 9.25 7.5 9.11 7.5 8.75V3.75C7.5 3.39 7.64 3.25 8 3.25H8.5C8.86 3.25 9 3.39 9 3.75V8.75ZM1.5 4.75H1C0.3645 4.75 0 5.1145 0 5.75V8.75C0 9.3855 0.3645 9.75 1 9.75H1.5C2.1355 9.75 2.5 9.3855 2.5 8.75V5.75C2.5 5.1145 2.1355 4.75 1.5 4.75ZM2 8.75C2 9.11 1.86 9.25 1.5 9.25H1C0.64 9.25 0.5 9.11 0.5 8.75V5.75C0.5 5.39 0.64 5.25 1 5.25H1.5C1.86 5.25 2 5.39 2 5.75V8.75Z" fill="#76768A"/>
</svg>
