<svg width="10" height="12" viewBox="0 0 10 12" fill="none" xmlns="http://www.w3.org/2000/svg">
<path d="M9.0345 7.88074C8.7425 7.71524 8.397 7.71977 8.1105 7.89227L6.98351 8.56824C6.89801 8.10324 6.4895 7.74976 6 7.74976H3.25C2.9135 7.74976 2.6085 7.88523 2.3835 8.10223C2.2505 7.89123 2.0175 7.74976 1.75 7.74976H0.75C0.3365 7.74976 0 8.08626 0 8.49976V10.4998C0 10.9133 0.3365 11.2498 0.75 11.2498H1.75C2.017 11.2498 2.2505 11.1082 2.3835 10.8972C2.6085 11.1147 2.9135 11.2498 3.25 11.2498H6.04849C6.55749 11.2498 7.0565 11.0747 7.4545 10.7567L9.15601 9.39526C9.37501 9.22026 9.5 8.95877 9.5 8.67877C9.5 8.34427 9.326 8.04574 9.0345 7.88074ZM2 10.5002C2 10.6382 1.888 10.7502 1.75 10.7502H0.75C0.612 10.7502 0.5 10.6382 0.5 10.5002V8.50024C0.5 8.36224 0.612 8.25024 0.75 8.25024H1.75C1.888 8.25024 2 8.36224 2 8.50024V9.00024V10.0002V10.5002ZM8.84351 9.00525L7.142 10.3668C6.833 10.6143 6.44449 10.7502 6.04849 10.7502H3.25C2.8365 10.7502 2.5 10.4137 2.5 10.0002V9.00024C2.5 8.58674 2.8365 8.25024 3.25 8.25024H6C6.2755 8.25024 6.5 8.47474 6.5 8.75024C6.5 9.02574 6.2755 9.25024 6 9.25024H4.25C4.112 9.25024 4 9.36224 4 9.50024C4 9.63824 4.112 9.75024 4.25 9.75024H6C6.386 9.75024 6.722 9.53024 6.8885 9.20874L8.36749 8.32123C8.49799 8.24223 8.65549 8.24074 8.78799 8.31573C8.92049 8.39073 9 8.52676 9 8.67926C9 8.80676 8.94301 8.92575 8.84351 9.00525ZM4.75 6.75024C6.4045 6.75024 7.75 5.40474 7.75 3.75024C7.75 2.09574 6.4045 0.750244 4.75 0.750244C3.0955 0.750244 1.75 2.09574 1.75 3.75024C1.75 5.40474 3.0955 6.75024 4.75 6.75024ZM4.75 1.25024C6.1285 1.25024 7.25 2.37174 7.25 3.75024C7.25 5.12874 6.1285 6.25024 4.75 6.25024C3.3715 6.25024 2.25 5.12874 2.25 3.75024C2.25 2.37174 3.3715 1.25024 4.75 1.25024ZM3.933 3.59723C3.8155 3.44223 3.75 3.24524 3.75 3.04474C3.75 2.59474 4.07249 2.22325 4.49249 2.15375V2.00024C4.49249 1.86224 4.60449 1.75024 4.74249 1.75024C4.88049 1.75024 4.99249 1.86224 4.99249 2.00024V2.15125C5.38549 2.20875 5.7 2.52924 5.745 2.94574C5.75999 3.08274 5.661 3.20625 5.5235 3.22125C5.3885 3.23525 5.263 3.13676 5.248 2.99976C5.226 2.79426 5.0625 2.63977 4.8685 2.63977H4.632C4.4215 2.63977 4.25 2.82173 4.25 3.04523C4.25 3.13773 4.279 3.22676 4.332 3.29626C4.386 3.36826 4.458 3.41722 4.5415 3.43872L5.084 3.57874C5.4765 3.68174 5.75 4.04273 5.75 4.45673C5.75 4.69623 5.65901 4.92227 5.49451 5.09277C5.35651 5.23527 5.18099 5.32174 4.99249 5.34924V5.50024C4.99249 5.63824 4.88049 5.75024 4.74249 5.75024C4.60449 5.75024 4.49249 5.63824 4.49249 5.50024V5.34772C4.10649 5.28472 3.7995 4.96575 3.755 4.55475C3.74 4.41775 3.839 4.29424 3.9765 4.27924C4.111 4.26374 4.237 4.36323 4.252 4.50073C4.274 4.70623 4.4375 4.86072 4.6315 4.86072H4.868C4.9675 4.86072 5.06201 4.81925 5.13451 4.74475C5.20851 4.66775 5.2495 4.56475 5.2495 4.45575C5.2495 4.26875 5.12949 4.10677 4.95799 4.06177L4.4155 3.92175C4.224 3.87225 4.0525 3.75673 3.933 3.59723Z" fill="#76768A"/>
</svg>
