<svg width="10" height="12" viewBox="0 0 10 12" fill="none" xmlns="http://www.w3.org/2000/svg">
<path d="M8.07692 11.9302H5.89744V9.33178C5.89744 8.85417 5.49487 8.46566 5 8.46566C4.50513 8.46566 4.10256 8.85417 4.10256 9.33178V11.9302H1.92308C0.683077 11.9302 0 11.2709 0 10.0742V6.93139C0 5.88066 0.300509 5.58715 0.790765 5.19467L3.92922 2.65521C4.54922 2.15285 5.45078 2.15285 6.07078 2.65521L9.20924 5.19467C9.69949 5.58715 10 5.88115 10 6.93139V10.0742C10 11.2709 9.31692 11.9302 8.07692 11.9302ZM6.66667 11.1878H8.07692C8.88564 11.1878 9.23077 10.8547 9.23077 10.0742V6.93139C9.23077 6.17613 9.10153 6.0727 8.71845 5.76585L5.57692 3.2239C5.24256 2.95367 4.75744 2.95367 4.42308 3.2239L1.28155 5.76585C0.898474 6.0727 0.769231 6.17613 0.769231 6.93139V10.0742C0.769231 10.8547 1.11436 11.1878 1.92308 11.1878H3.33333V9.33178C3.33333 8.44487 4.08103 7.72326 5 7.72326C5.91897 7.72326 6.66667 8.44487 6.66667 9.33178V11.1878Z" fill="#CAFC5F"/>
</svg>
