<svg width="18" height="14" viewBox="0 0 18 14" fill="none" xmlns="http://www.w3.org/2000/svg">
<path d="M16.9947 1.40922C17.5564 9.00539 12.6796 12.5928 8.30059 12.9758C4.22802 13.3333 0.398018 10.831 0.0660844 6.98826C-0.214782 3.80936 1.75129 2.46886 3.29605 2.32842C4.87912 2.18799 6.20685 3.28592 6.32175 4.60089C6.43665 5.87756 5.64512 6.45206 5.08339 6.50313C4.64932 6.54143 4.10035 6.27332 4.04929 5.71159C4.01099 5.22646 4.18972 5.14986 4.15142 4.63919C4.07482 3.71999 3.25775 3.60509 2.82369 3.64339C2.28749 3.69446 1.31722 4.32002 1.45765 5.86479C1.59808 7.43509 3.09179 8.67346 5.07062 8.49473C7.18989 8.30323 8.67082 6.65633 8.78572 4.33279C8.78572 4.20512 8.81126 4.09022 8.86232 3.97532C8.88786 3.92426 8.91339 3.88596 8.93892 3.83489C8.98999 3.77106 9.04106 3.69446 9.11766 3.60509C9.16872 3.54126 9.23256 3.47742 9.30916 3.40082C10.2411 2.51992 13.586 0.464487 16.7394 1.11559C16.8926 1.15389 16.9947 1.26879 16.9947 1.40922Z" fill="url(#paint0_linear_1057_1360)"/>
<defs>
<linearGradient id="paint0_linear_1057_1360" x1="16.0201" y1="0.948614" x2="5.01713" y2="16.5231" gradientUnits="userSpaceOnUse">
<stop stop-color="#11C4D1"/>
<stop offset="1" stop-color="#0062AD"/>
</linearGradient>
</defs>
</svg>
