<svg width="48" height="48" viewBox="0 0 48 48" fill="none" xmlns="http://www.w3.org/2000/svg">
<path d="M41.384 29.0859C40.06 28.3359 38.492 28.3559 37.184 29.1399L33.244 31.5039C32.626 29.7559 30.956 28.5 29 28.5H18C16.718 28.5 15.552 28.96 14.616 29.698C13.974 28.97 13.046 28.5 12 28.5H8C6.07 28.5 4.5 30.07 4.5 32V40C4.5 41.93 6.07 43.5 8 43.5H12C13.044 43.5 13.974 43.03 14.616 42.302C15.552 43.04 16.718 43.5 18 43.5H29.194C31.342 43.5 33.45 42.76 35.13 41.418L41.936 35.9719C42.93 35.1759 43.5 33.9881 43.5 32.7161C43.5 31.1941 42.708 29.8359 41.384 29.0859ZM12.5 40C12.5 40.276 12.276 40.5 12 40.5H8C7.724 40.5 7.5 40.276 7.5 40V32C7.5 31.724 7.724 31.5 8 31.5H12C12.276 31.5 12.5 31.724 12.5 32V34V38V40ZM40.06 33.6299L33.254 39.074C32.106 39.992 30.664 40.498 29.192 40.498H18C16.622 40.498 15.5 39.376 15.5 37.998V33.998C15.5 32.62 16.622 31.498 18 31.498H29C29.828 31.498 30.5 32.17 30.5 32.998C30.5 33.826 29.828 34.498 29 34.498H22C21.172 34.498 20.5 35.17 20.5 35.998C20.5 36.826 21.172 37.498 22 37.498H29C30.686 37.498 32.16 36.5659 32.93 35.1899L38.728 31.7119C39.252 31.3939 39.728 31.596 39.906 31.696C40.084 31.798 40.5 32.1001 40.5 32.7161C40.5 33.0741 40.34 33.4079 40.06 33.6299ZM19.526 14.3621C18.868 13.5281 18.5 12.4621 18.5 11.3701C18.5 8.99612 20.208 7.02004 22.46 6.59204V6C22.46 5.172 23.132 4.5 23.96 4.5C24.788 4.5 25.46 5.172 25.46 6V6.57788C27.56 6.93988 29.224 8.64403 29.47 10.832C29.562 11.656 28.97 12.398 28.148 12.49C27.342 12.59 26.582 11.992 26.49 11.168C26.382 10.216 25.582 9.5 24.63 9.5H23.37C22.338 9.5 21.5 10.3381 21.5 11.3701C21.5 11.7881 21.638 12.194 21.888 12.51C22.152 12.85 22.506 13.0801 22.918 13.1841L25.812 13.9021C27.986 14.4521 29.5 16.3959 29.5 18.6279C29.5 19.9259 28.992 21.1481 28.07 22.0701C27.35 22.7901 26.442 23.248 25.46 23.418V24C25.46 24.828 24.788 25.5 23.96 25.5C23.132 25.5 22.46 24.828 22.46 24V23.416C20.396 23.026 18.772 21.33 18.53 19.168C18.438 18.344 19.03 17.602 19.852 17.51C20.656 17.412 21.418 18.008 21.51 18.832C21.618 19.784 22.418 20.5 23.37 20.5H24.63C25.126 20.5 25.594 20.304 25.948 19.95C26.304 19.594 26.5 19.1259 26.5 18.6299C26.5 17.7719 25.916 17.026 25.082 16.814L22.188 16.0959C21.132 15.8279 20.188 15.2121 19.526 14.3621Z" fill="#CAFC5F"/>
</svg>
