<svg width="48" height="48" viewBox="0 0 48 48" fill="none" xmlns="http://www.w3.org/2000/svg">
<path d="M32.1599 20.7781C32.3919 19.9841 33.222 19.528 34.022 19.76C34.204 19.814 34.4179 19.8401 34.6799 19.8401C36.4219 19.8401 37.8401 18.4139 37.8401 16.6599C37.8401 15.2259 36.8719 13.9721 35.4819 13.6121C34.6799 13.4041 34.198 12.584 34.408 11.782C34.614 10.98 35.4281 10.5041 36.2361 10.7061C38.9461 11.4101 40.8401 13.858 40.8401 16.658C40.8401 20.066 38.0759 22.8379 34.6799 22.8379C34.1299 22.8379 33.638 22.7719 33.178 22.6379C32.382 22.4059 31.9279 21.5741 32.1599 20.7781ZM37.7939 23.8621C37.7739 23.8621 37.756 23.8621 37.74 23.8621C36.936 23.8621 36.2699 24.4981 36.2419 25.3081C36.2099 26.1361 36.858 26.8301 37.686 26.8601C42.152 27.0221 42.5 30.85 42.5 32.02V36C42.5 36.828 43.172 37.5 44 37.5C44.828 37.5 45.5 36.828 45.5 36V32.02C45.5 28.384 43.4819 24.0661 37.7939 23.8621ZM13.3401 22.8401C13.8901 22.8401 14.382 22.7739 14.842 22.6399C15.636 22.4059 16.0921 21.5741 15.8601 20.7781C15.6281 19.9841 14.796 19.528 13.998 19.76C13.816 19.814 13.6021 19.8401 13.3401 19.8401C11.5981 19.8401 10.1799 18.4139 10.1799 16.6599C10.1799 15.2139 11.1559 13.952 12.5559 13.592C13.3559 13.386 13.842 12.5681 13.634 11.7661C13.426 10.9621 12.6059 10.476 11.8059 10.688C9.08391 11.39 7.18188 13.8459 7.18188 16.6599C7.17988 20.0679 9.94409 22.8401 13.3401 22.8401ZM11.718 25.3C11.684 24.472 11.0039 23.8181 10.1599 23.8621C4.50591 24.0901 2.5 28.4 2.5 32.02V36C2.5 36.828 3.172 37.5 4 37.5C4.828 37.5 5.5 36.828 5.5 36V32.02C5.5 30.526 5.96598 27.0321 10.282 26.8601C11.11 26.8261 11.752 26.128 11.718 25.3ZM16.5161 14C16.5161 9.864 19.8821 6.5 24.0161 6.5C28.1501 6.5 31.5161 9.864 31.5161 14C31.5161 18.136 28.1501 21.5 24.0161 21.5C19.8821 21.5 16.5161 18.136 16.5161 14ZM19.5161 14C19.5161 16.482 21.5361 18.5 24.0161 18.5C26.4961 18.5 28.5161 16.482 28.5161 14C28.5161 11.518 26.4961 9.5 24.0161 9.5C21.5361 9.5 19.5161 11.518 19.5161 14ZM27.554 24.2781H20.4441C12.7741 24.2781 10.054 29.892 10.054 34.7V40C10.054 40.828 10.726 41.5 11.554 41.5C12.382 41.5 13.054 40.828 13.054 40V34.7C13.054 32.958 13.5881 27.2781 20.4441 27.2781H27.554C34.412 27.2781 34.9441 32.958 34.9441 34.7V40C34.9441 40.828 35.6161 41.5 36.4441 41.5C37.2721 41.5 37.9441 40.828 37.9441 40V34.7C37.9461 29.892 35.224 24.2781 27.554 24.2781Z" fill="#CAFC5F"/>
</svg>
