<svg width="15" height="14" viewBox="0 0 15 14" fill="none" xmlns="http://www.w3.org/2000/svg">
<g clip-path="url(#clip0_1057_1318)">
<path d="M13.2576 0.658813L7.82227 4.65293L8.8105 2.30587L13.2576 0.658813Z" fill="#E17726" stroke="#E17726" stroke-width="0.102941" stroke-linecap="round" stroke-linejoin="round"/>
<path d="M0.78125 0.658813L6.13419 4.69411L5.18713 2.30587L0.78125 0.658813Z" fill="#E27625" stroke="#E27625" stroke-width="0.102941" stroke-linecap="round" stroke-linejoin="round"/>
<path d="M11.322 9.96472L9.88086 12.1471L12.9691 13.0118L13.8338 10.0059L11.322 9.96472Z" fill="#E27625" stroke="#E27625" stroke-width="0.102941" stroke-linecap="round" stroke-linejoin="round"/>
<path d="M0.203125 10.0059L1.06783 13.0118L4.15607 12.1471L2.71489 9.96472L0.203125 10.0059Z" fill="#E27625" stroke="#E27625" stroke-width="0.102941" stroke-linecap="round" stroke-linejoin="round"/>
<path d="M3.99166 6.2176L3.12695 7.49407L6.17401 7.6176L6.09166 4.32349L3.99166 6.2176Z" fill="#E27625" stroke="#E27625" stroke-width="0.102941" stroke-linecap="round" stroke-linejoin="round"/>
<path d="M10.0458 6.2176L7.90462 4.32349L7.82227 7.65878L10.8693 7.53525L10.0458 6.2176Z" fill="#E27625" stroke="#E27625" stroke-width="0.102941" stroke-linecap="round" stroke-linejoin="round"/>
<path d="M4.15625 12.147L6.00919 11.2412L4.40331 10.0059L4.15625 12.147Z" fill="#E27625" stroke="#E27625" stroke-width="0.102941" stroke-linecap="round" stroke-linejoin="round"/>
<path d="M8.02747 11.2412L9.88041 12.1471L9.63335 10.0059L8.02747 11.2412Z" fill="#E27625" stroke="#E27625" stroke-width="0.102941" stroke-linecap="round" stroke-linejoin="round"/>
<path d="M9.88041 12.1471L8.02747 11.2412L8.19217 12.4353V12.9294L9.88041 12.1471Z" fill="#D5BFB2" stroke="#D5BFB2" stroke-width="0.102941" stroke-linecap="round" stroke-linejoin="round"/>
<path d="M4.15625 12.1471L5.88566 12.9706V12.4765L6.05037 11.2823L4.15625 12.1471Z" fill="#D5BFB2" stroke="#D5BFB2" stroke-width="0.102941" stroke-linecap="round" stroke-linejoin="round"/>
<path d="M5.88681 9.22355L4.36328 8.77061L5.43387 8.27649L5.88681 9.22355Z" fill="#233447" stroke="#233447" stroke-width="0.102941" stroke-linecap="round" stroke-linejoin="round"/>
<path d="M8.1095 9.22352L8.56244 8.27646L9.63303 8.77058L8.1095 9.22352Z" fill="#233447" stroke="#233447" stroke-width="0.102941" stroke-linecap="round" stroke-linejoin="round"/>
<path d="M4.15602 12.1471L4.40308 9.96472L2.71484 10.0059L4.15602 12.1471Z" fill="#CC6228" stroke="#CC6228" stroke-width="0.102941" stroke-linecap="round" stroke-linejoin="round"/>
<path d="M9.59167 9.96469L9.83873 12.147L11.2799 10.0059L9.59167 9.96469Z" fill="#CC6228" stroke="#CC6228" stroke-width="0.102941" stroke-linecap="round" stroke-linejoin="round"/>
<path d="M10.9103 7.53528L7.86328 7.65881L8.15152 9.22351L8.60446 8.27646L9.67505 8.77057L10.9103 7.53528Z" fill="#CC6228" stroke="#CC6228" stroke-width="0.102941" stroke-linecap="round" stroke-linejoin="round"/>
<path d="M4.36225 8.77057L5.43284 8.27646L5.88578 9.22351L6.17401 7.65881L3.12695 7.53528L4.36225 8.77057Z" fill="#CC6228" stroke="#CC6228" stroke-width="0.102941" stroke-linecap="round" stroke-linejoin="round"/>
<path d="M3.12695 7.53528L4.40342 10.047L4.36225 8.81175L3.12695 7.53528Z" fill="#E27525" stroke="#E27525" stroke-width="0.102941" stroke-linecap="round" stroke-linejoin="round"/>
<path d="M9.67399 8.77061L9.63281 10.0059L10.9093 7.49414L9.67399 8.77061Z" fill="#E27525" stroke="#E27525" stroke-width="0.102941" stroke-linecap="round" stroke-linejoin="round"/>
<path d="M6.17495 7.65881L5.88672 9.22352L6.25731 11.0765L6.33966 8.64705L6.17495 7.65881Z" fill="#E27525" stroke="#E27525" stroke-width="0.102941" stroke-linecap="round" stroke-linejoin="round"/>
<path d="M7.82096 7.65881L7.65625 8.64705L7.7386 11.0765L8.10919 9.22352L7.82096 7.65881Z" fill="#E27525" stroke="#E27525" stroke-width="0.102941" stroke-linecap="round" stroke-linejoin="round"/>
<path d="M8.10887 9.22357L7.73828 11.0765L7.98534 11.2412L9.59122 10.0059L9.6324 8.77063L8.10887 9.22357Z" fill="#F5841F" stroke="#F5841F" stroke-width="0.102941" stroke-linecap="round" stroke-linejoin="round"/>
<path d="M4.36328 8.77063L4.40446 10.0059L6.01034 11.2412L6.2574 11.0765L5.88681 9.22357L4.36328 8.77063Z" fill="#F5841F" stroke="#F5841F" stroke-width="0.102941" stroke-linecap="round" stroke-linejoin="round"/>
<path d="M8.15037 12.9706V12.4765L8.02684 12.353H5.96801L5.84449 12.4765V12.9706L4.15625 12.1471L4.7739 12.6412L5.96801 13.4647H8.06801L9.30331 12.6412L9.87978 12.1471L8.15037 12.9706Z" fill="#C0AC9D" stroke="#C0AC9D" stroke-width="0.102941" stroke-linecap="round" stroke-linejoin="round"/>
<path d="M8.02806 11.2412L7.781 11.0765H6.25747L6.01041 11.2412L5.8457 12.4354L5.96923 12.3118H8.02806L8.15159 12.4354L8.02806 11.2412Z" fill="#161616" stroke="#161616" stroke-width="0.102941" stroke-linecap="round" stroke-linejoin="round"/>
<path d="M13.4628 4.94117L13.9157 2.71764L13.2157 0.658813L8.02747 4.5294L10.0451 6.21764L12.8863 7.04117L13.5039 6.29999L13.2157 6.13528L13.6686 5.72352L13.3392 5.47646L13.7922 5.14705L13.4628 4.94117Z" fill="#763E1A" stroke="#763E1A" stroke-width="0.102941" stroke-linecap="round" stroke-linejoin="round"/>
<path d="M0.0800781 2.71764L0.533019 4.94117L0.244784 5.14705L0.697725 5.47646L0.368313 5.72352L0.821255 6.13528L0.533019 6.34117L1.15067 7.08234L3.99184 6.25881L6.00949 4.57058L0.780078 0.658813L0.0800781 2.71764Z" fill="#763E1A" stroke="#763E1A" stroke-width="0.102941" stroke-linecap="round" stroke-linejoin="round"/>
<path d="M12.8858 7.04118L10.0446 6.21765L10.9093 7.49412L9.63281 10.0059L11.321 9.96471H13.8328L12.8858 7.04118Z" fill="#F5841F" stroke="#F5841F" stroke-width="0.102941" stroke-linecap="round" stroke-linejoin="round"/>
<path d="M3.99136 6.21765L1.15018 7.04118L0.203125 9.96471H2.71489L4.40313 10.0059L3.12665 7.49412L3.99136 6.21765Z" fill="#F5841F" stroke="#F5841F" stroke-width="0.102941" stroke-linecap="round" stroke-linejoin="round"/>
<path d="M7.821 7.65885L7.98571 4.52944L8.80924 2.30591H5.14453L5.96806 4.52944L6.13277 7.65885L6.21512 8.64708V11.0765H7.73865V8.64708L7.821 7.65885Z" fill="#F5841F" stroke="#F5841F" stroke-width="0.102941" stroke-linecap="round" stroke-linejoin="round"/>
</g>
<defs>
<clipPath id="clip0_1057_1318">
<rect width="14" height="12.7647" fill="white" transform="translate(0.0390625 0.617676)"/>
</clipPath>
</defs>
</svg>
