<svg width="10" height="10" viewBox="0 0 10 10" fill="none" xmlns="http://www.w3.org/2000/svg">
<path d="M5.31261 4.37499V5.62499C5.31261 5.79749 5.17261 5.93749 5.00011 5.93749C4.82761 5.93749 4.68761 5.79749 4.68761 5.62499V4.37499C4.68761 4.20249 4.82761 4.06249 5.00011 4.06249C5.17261 4.06249 5.31261 4.20249 5.31261 4.37499ZM8.76386 8.13954C8.50553 8.4612 8.12052 8.64582 7.70802 8.64582H2.2922C1.8797 8.64582 1.49469 8.4612 1.23636 8.13954C0.978026 7.81787 0.880946 7.40211 0.970112 6.9992L1.94803 2.57913C2.11261 1.83497 2.67636 1.35416 3.38469 1.35416H6.61595C7.32428 1.35416 7.88803 1.83497 8.05261 2.57913L9.03053 6.9992C9.11928 7.40211 9.0222 7.81787 8.76386 8.13954ZM8.42011 7.13419L7.44219 2.71412C7.34052 2.2537 7.03178 1.97916 6.61595 1.97916H5.31303V2.91666C5.31303 3.08916 5.17303 3.22916 5.00053 3.22916C4.82803 3.22916 4.68803 3.08916 4.68803 2.91666V1.97916H3.38511C2.96927 1.97916 2.66053 2.2537 2.55886 2.71412L1.58095 7.13419C1.53303 7.35127 1.58511 7.57497 1.72428 7.7483C1.86303 7.92163 2.07053 8.02082 2.29261 8.02082H4.68803V7.08332C4.68803 6.91082 4.82803 6.77082 5.00053 6.77082C5.17303 6.77082 5.31303 6.91082 5.31303 7.08332V8.02082H7.70844C7.93053 8.02082 8.13803 7.92163 8.27678 7.7483C8.41553 7.57497 8.46802 7.35127 8.42011 7.13419Z" fill="#CAFC5F"/>
</svg>
