<svg width="48" height="48" viewBox="0 0 48 48" fill="none" xmlns="http://www.w3.org/2000/svg">
<path d="M42.968 34.728C42.512 35.54 41.83 36.168 40.994 36.544L27.832 42.656C26.614 43.222 25.308 43.506 24 43.506C22.692 43.506 21.384 43.222 20.166 42.656L6.98798 36.536C6.16998 36.168 5.48603 35.542 5.03003 34.728C4.62403 34.006 4.88202 33.092 5.60602 32.686C6.32602 32.284 7.24201 32.538 7.64801 33.262C7.79001 33.516 7.98201 33.694 8.23401 33.806L21.432 39.934C23.042 40.682 24.96 40.682 26.568 39.934L39.748 33.814C40.018 33.692 40.21 33.514 40.352 33.26C40.756 32.536 41.67 32.28 42.394 32.684C43.116 33.092 43.374 34.006 42.968 34.728ZM42.394 24.04C41.67 23.636 40.756 23.89 40.352 24.616C40.21 24.87 40.018 25.048 39.748 25.17L26.568 31.29C24.96 32.038 23.042 32.038 21.432 31.29L8.23401 25.162C7.98401 25.05 7.79202 24.872 7.65002 24.618C7.24402 23.894 6.32797 23.64 5.60797 24.042C4.88597 24.448 4.62798 25.362 5.03198 26.084C5.48798 26.898 6.16999 27.524 6.98999 27.892L20.168 34.012C21.386 34.578 22.694 34.862 24.002 34.862C25.31 34.862 26.616 34.578 27.834 34.012L40.996 27.9C41.832 27.524 42.516 26.898 42.972 26.084C43.374 25.358 43.116 24.444 42.394 24.04ZM4.5 15.36C4.5 13.662 5.45597 12.166 6.99597 11.452L20.168 5.346C22.602 4.218 25.394 4.218 27.83 5.346L41.002 11.452C42.542 12.166 43.498 13.664 43.498 15.36C43.498 17.056 42.542 18.554 41.002 19.268L27.83 25.374C26.614 25.938 25.306 26.22 23.998 26.22C22.69 26.22 21.384 25.938 20.166 25.374L6.99402 19.268C5.45602 18.554 4.5 17.058 4.5 15.36ZM7.5 15.36C7.5 15.556 7.554 16.22 8.258 16.548L21.43 22.654C23.064 23.412 24.938 23.41 26.568 22.654L39.74 16.548C40.444 16.222 40.498 15.556 40.498 15.36C40.498 15.164 40.444 14.5 39.74 14.172L26.568 8.06597C25.752 7.68797 24.874 7.49798 23.998 7.49798C23.122 7.49798 22.246 7.68797 21.428 8.06597L8.25598 14.172C7.55398 14.5 7.5 15.164 7.5 15.36Z" fill="#CAFC5F"/>
</svg>
