<svg width="12" height="11" viewBox="0 0 12 11" fill="none" xmlns="http://www.w3.org/2000/svg">
<g clip-path="url(#clip0_1130_1188)">
<path fill-rule="evenodd" clip-rule="evenodd" d="M9.1922 10.8126C9.3532 10.9266 9.5607 10.9551 9.7457 10.8851C9.9307 10.8146 10.0667 10.6566 10.1077 10.4651C10.5422 8.42315 11.5962 3.25467 11.9917 1.39717C12.0217 1.25717 11.9717 1.11167 11.8617 1.01817C11.7517 0.92467 11.5992 0.89767 11.4632 0.94817C9.3667 1.72417 2.9102 4.14667 0.271199 5.12317C0.103699 5.18517 -0.00530105 5.34617 0.000198925 5.52267C0.00619895 5.69967 0.125199 5.85317 0.296699 5.90467C1.4802 6.25865 3.0337 6.75115 3.0337 6.75115C3.0337 6.75115 3.7597 8.94365 4.1382 10.0586C4.1857 10.1986 4.2952 10.3086 4.4397 10.3466C4.5837 10.3841 4.7377 10.3446 4.8452 10.2431C5.4532 9.66915 6.3932 8.78165 6.3932 8.78165C6.3932 8.78165 8.1792 10.0911 9.1922 10.8126ZM3.6872 6.47415L4.5267 9.24315L4.7132 7.48965C4.7132 7.48965 7.9567 4.56417 9.8057 2.89667C9.8597 2.84767 9.8672 2.76567 9.8222 2.70817C9.7777 2.65067 9.6957 2.63717 9.6342 2.67617C7.4912 4.04467 3.6872 6.47415 3.6872 6.47415Z" fill="#76768A"/>
</g>
<defs>
<clipPath id="clip0_1130_1188">
<rect width="12" height="10" fill="white" transform="translate(0 0.923096)"/>
</clipPath>
</defs>
</svg>
