<svg width="10" height="10" viewBox="0 0 10 10" fill="none" xmlns="http://www.w3.org/2000/svg">
<path d="M9.38065 7.83948L5.79114 1.36298C5.57864 0.978976 5.18965 0.75 4.75065 0.75C4.31165 0.75 3.92315 0.978976 3.71015 1.36298L0.120641 7.83899C-0.0443587 8.13649 -0.0398653 8.48898 0.132635 8.78198C0.305135 9.07498 0.611158 9.25 0.950658 9.25H8.54966C8.88966 9.25 9.19564 9.07498 9.36814 8.78198C9.54064 8.48898 9.54565 8.13648 9.38065 7.83948ZM2.54365 4.5H6.95813L8.06666 6.5H1.43516L2.54365 4.5ZM4.14765 1.60498C4.27115 1.38248 4.49615 1.25 4.75065 1.25C5.00515 1.25 5.23014 1.38298 5.35364 1.60498L6.68116 4H2.82114L4.14765 1.60498ZM8.93714 8.5285C8.85564 8.6675 8.71115 8.75 8.55015 8.75H0.951147C0.790647 8.75 0.645653 8.667 0.564153 8.5285C0.482153 8.3895 0.48016 8.22248 0.55866 8.08148L1.15815 7H8.34363L8.94315 8.08197C9.02115 8.22247 9.01914 8.3895 8.93714 8.5285Z" fill="#76768A"/>
</svg>
