<svg width="12" height="14" viewBox="0 0 12 14" fill="none" xmlns="http://www.w3.org/2000/svg">
<path d="M5.54509 1.13696L5.25368 0.758738C5.42729 0.622332 5.6691 0.622332 5.8427 0.758738L5.54509 1.13696ZM0.522861 2.61262L0.0454388 2.61882C0.0454388 2.48862 0.0950413 2.36461 0.181845 2.27781C0.274849 2.1848 0.392654 2.1352 0.522861 2.1352V2.61262ZM5.54509 12.8679L5.8117 13.2647C5.6505 13.3701 5.43969 13.3701 5.27848 13.2647L5.54509 12.8679ZM10.5611 2.61262V2.1352C10.6913 2.1352 10.8153 2.1848 10.9021 2.27781C10.9951 2.37081 11.0447 2.49482 11.0385 2.61882L10.5611 2.61262ZM5.8365 1.51517C3.6602 3.20165 1.17389 3.09004 0.522861 3.09004V2.129C1.19869 2.129 3.36879 2.2158 5.25368 0.752537L5.8365 1.51517ZM1.00028 2.60022C1.03749 4.82612 1.13049 6.3948 1.3103 7.56045C1.49011 8.7137 1.74432 9.40193 2.07293 9.88556C2.40775 10.3878 2.82317 10.6854 3.43699 11.0574C4.05702 11.4294 4.84446 11.8324 5.8117 12.4711L5.27848 13.2709C4.36084 12.6571 3.592 12.2665 2.94097 11.882C2.28374 11.4914 1.70712 11.0574 1.2731 10.425C0.832875 9.77395 0.547662 8.93071 0.361653 7.70926C0.175645 6.5002 0.0764408 4.86953 0.0392389 2.61882L1.00028 2.60022ZM5.27848 12.4711C6.24572 11.8324 7.02696 11.4294 7.65319 11.0574C8.26702 10.6916 8.68244 10.3878 9.01725 9.88556C9.34587 9.40193 9.60008 8.7137 9.77369 7.56045C9.95349 6.3948 10.0465 4.82612 10.0837 2.60022L11.0385 2.61882C11.0013 4.86333 10.9021 6.5002 10.7161 7.70926C10.5301 8.93071 10.2449 9.77395 9.80469 10.425C9.37067 11.0574 8.79404 11.4852 8.14301 11.882C7.49198 12.2727 6.72935 12.6633 5.8117 13.2709L5.27848 12.4711ZM10.5611 3.09004C9.91629 3.09004 7.42378 3.19545 5.25368 1.51517L5.8427 0.758738C7.72139 2.2158 9.89149 2.129 10.5611 2.129V3.09004Z" fill="#3375BB"/>
</svg>
