<svg width="12" height="11" viewBox="0 0 12 11" fill="none" xmlns="http://www.w3.org/2000/svg">
<g clip-path="url(#clip0_1130_1184)">
<path d="M12 2.20162C11.5585 2.39762 11.084 2.52962 10.586 2.58912C11.0945 2.28462 11.485 1.80212 11.6685 1.22712C11.193 1.50912 10.666 1.71412 10.105 1.82462C9.6565 1.34612 9.016 1.04712 8.308 1.04712C6.7185 1.04712 5.5505 2.53012 5.9095 4.06962C3.864 3.96712 2.05 2.98712 0.8355 1.49762C0.1905 2.60412 0.501 4.05162 1.597 4.78462C1.194 4.77162 0.814 4.66112 0.4825 4.47662C0.4555 5.61712 1.273 6.6841 2.457 6.9216C2.1105 7.0156 1.731 7.0376 1.345 6.9636C1.658 7.9416 2.567 8.6531 3.645 8.6731C2.61 9.4846 1.306 9.8471 0 9.6931C1.0895 10.3916 2.384 10.7991 3.774 10.7991C8.345 10.7991 10.9275 6.9386 10.7715 3.47612C11.2525 3.12862 11.67 2.69512 12 2.20162Z" fill="#76768A"/>
</g>
<defs>
<clipPath id="clip0_1130_1184">
<rect width="12" height="10" fill="white" transform="translate(0 0.923065)"/>
</clipPath>
</defs>
</svg>
