<?xml version="1.0" encoding="utf-8"?>
<!-- Generator: Adobe Illustrator 26.1.0, SVG Export Plug-In . SVG Version: 6.00 Build 0)  -->
<svg version="1.1" id="Layer_1" xmlns="http://www.w3.org/2000/svg" xmlns:xlink="http://www.w3.org/1999/xlink" x="0px" y="0px"
	 viewBox="0 0 624 634" style="enable-background:new 0 0 624 634;" xml:space="preserve">
<style type="text/css">
	.st0{fill:#3395FE;}
	.st1{fill:#FFFFFF;}
</style>
<g>
	<path class="st0" d="M312.34,18.77c165.88-0.33,299.42,135.27,299.29,299.47c-0.12,162.58-131.82,299.03-299.37,298.99
		C146.35,617.19,12.85,482.74,13.09,317.55C13.33,151.45,148.34,18.44,312.34,18.77z"/>
	<path class="st1" d="M508.95,323.31c0.06,2.43-0.99,4.32-2.67,5.95c-5.21,5.07-10.39,10.18-15.6,15.25
		c-12.41,12.11-24.83,24.21-37.25,36.32c-17.4,16.96-34.79,33.92-52.19,50.87c-4.09,3.99-8.77,3.97-12.9-0.06
		c-18.42-17.97-36.83-35.95-55.25-53.92c-6.06-5.92-12.13-11.83-18.2-17.74c-0.23-0.22-0.45-0.46-0.69-0.67
		c-1.48-1.28-2.28-1.29-3.72,0.08c-2.95,2.82-5.86,5.66-8.78,8.51c-18.3,17.86-36.6,35.73-54.9,53.59c-3.49,3.4-7.1,6.7-10.45,10.22
		c-3.29,3.46-8.82,4.01-12.94-0.05c-19.42-19.12-38.98-38.1-58.49-57.12c-15.28-14.89-30.56-29.78-45.85-44.67
		c-1.09-1.06-2.16-2.14-2.73-3.59c-1.32-3.37-0.53-6.29,1.96-8.76c4.42-4.39,8.9-8.73,13.36-13.09c3.14-3.07,6.29-6.14,9.45-9.19
		c4.02-3.89,8.67-3.91,12.71,0.02c16.77,16.34,33.52,32.71,50.28,49.05c7.78,7.59,15.58,15.16,23.37,22.74
		c2.13,2.07,2.79,2.07,4.94-0.02c15.16-14.79,30.32-29.58,45.48-44.37c9.38-9.15,18.77-18.29,28.17-27.43
		c4-3.89,8.69-3.89,12.71,0.03c17.62,17.18,35.23,34.38,52.85,51.57c6.86,6.7,13.73,13.39,20.6,20.09c0.4,0.39,0.79,0.8,1.24,1.13
		c0.95,0.7,1.93,0.7,2.86-0.04c0.37-0.3,0.7-0.65,1.04-0.99c15.9-15.51,31.8-31.03,47.71-46.54c8.64-8.42,17.29-16.84,25.94-25.25
		c3.94-3.83,8.6-3.92,12.54-0.11c7.64,7.39,15.22,14.84,22.83,22.26C508.02,319.02,509.02,320.95,508.95,323.31z"/>
	<path class="st1" d="M312.65,194.49c39.51,0.53,74.94,12.82,105.78,37.94c6.33,5.16,12.11,10.92,17.85,16.7
		c3.26,3.28,3.13,7.98-0.28,11.33c-7.63,7.51-15.31,14.97-22.98,22.45c-0.91,0.89-1.82,1.8-2.75,2.68
		c-2.39,2.27-4.42,2.24-6.86-0.11c-3.05-2.94-6.1-5.88-9.11-8.86c-17.04-16.83-37.38-27.37-60.88-31.74
		c-11.05-2.06-22.19-2.42-33.39-1.22c-22.59,2.43-42.77,10.68-60.54,24.83c-6.01,4.79-11.31,10.36-16.82,15.69
		c-0.92,0.89-1.79,1.84-2.76,2.66c-1.78,1.52-3.86,1.49-5.67,0.02c-0.25-0.2-0.47-0.43-0.7-0.66c-8.46-8.26-16.92-16.53-25.39-24.78
		c-2.23-2.17-3.22-4.7-2.57-7.8c0.31-1.46,1.01-2.69,2.03-3.74c15.05-15.56,31.64-29.05,51.3-38.48c15-7.2,30.68-12.16,47.13-14.77
		C294.82,195.25,303.65,194.73,312.65,194.49z"/>
</g>
</svg>
